HIERARCHY
ROOT Hips
{
	OFFSET 0.000000 0.000000 0.000000
	CHANNELS 6 Xposition Yposition Zposition Zrotation Yrotation Xrotation 
	JOINT LHipJoint
	{
		OFFSET 0.000000 0.000000 0.000000
		CHANNELS 3 Zrotation Yrotation Xrotation
		JOINT LeftUpLeg
		{
			OFFSET 1.363060 -1.794630 0.839290
			CHANNELS 3 Zrotation Yrotation Xrotation
			JOINT LeftLeg
			{
				OFFSET 2.448110 -6.726130 0.000000
				CHANNELS 3 Zrotation Yrotation Xrotation
				JOINT LeftFoot
				{
					OFFSET 2.562200 -7.039590 0.000000
					CHANNELS 3 Zrotation Yrotation Xrotation
					JOINT LeftToeBase
					{
						OFFSET 0.157640 -0.433110 2.322550
						CHANNELS 3 Zrotation Yrotation Xrotation
						End Site
						{
							OFFSET 0.000000 0.000000 0.000000
						}
					}
				}
			}
		}
	}
	JOINT RHipJoint
	{
		OFFSET 0.000000 0.000000 0.000000
		CHANNELS 3 Zrotation Yrotation Xrotation
		JOINT RightUpLeg
		{
			OFFSET -1.305520 -1.794630 0.839290
			CHANNELS 3 Zrotation Yrotation Xrotation
			JOINT RightLeg
			{
				OFFSET -2.542530 -6.985550 0.000000
				CHANNELS 3 Zrotation Yrotation Xrotation
				JOINT RightFoot
				{
					OFFSET -2.568260 -7.056230 0.000000
					CHANNELS 3 Zrotation Yrotation Xrotation
					JOINT RightToeBase
					{
						OFFSET -0.164730 -0.452590 2.363150
						CHANNELS 3 Zrotation Yrotation Xrotation
						End Site
						{
							OFFSET 0.000000 0.000000 0.000000
						}
					}
				}
			}
		}
	}
	JOINT LowerBack
	{
		OFFSET 0.000000 0.000000 0.000000
		CHANNELS 3 Zrotation Yrotation Xrotation
		JOINT Spine
		{
			OFFSET 0.028270 2.035590 -0.193380
			CHANNELS 3 Zrotation Yrotation Xrotation
			JOINT Spine1
			{
				OFFSET 0.056720 2.048850 -0.042750
				CHANNELS 3 Zrotation Yrotation Xrotation
				JOINT Neck
				{
					OFFSET 0.000000 0.000000 0.000000
					CHANNELS 3 Zrotation Yrotation Xrotation
					JOINT Neck1
					{
						OFFSET -0.054170 1.746240 0.172020
						CHANNELS 3 Zrotation Yrotation Xrotation
						JOINT Head
						{
							OFFSET 0.104070 1.761360 -0.123970
							CHANNELS 3 Zrotation Yrotation Xrotation
							End Site
							{
								OFFSET 0.000000 0.000000 0.000000
							}
						}
					}
				}
				JOINT LeftShoulder
				{
					OFFSET 0.000000 0.000000 0.000000
					CHANNELS 3 Zrotation Yrotation Xrotation
					JOINT LeftArm
					{
						OFFSET 3.362410 1.200890 -0.311210
						CHANNELS 3 Zrotation Yrotation Xrotation
						JOINT LeftForeArm
						{
							OFFSET 4.983000 -0.000000 -0.000000
							CHANNELS 3 Zrotation Yrotation Xrotation
							JOINT LeftHand
							{
								OFFSET 3.483560 -0.000000 -0.000000
								CHANNELS 3 Zrotation Yrotation Xrotation
								JOINT LeftFingerBase
								{
									OFFSET 0.000000 0.000000 0.000000
									CHANNELS 3 Zrotation Yrotation Xrotation
									JOINT LeftHandIndex1
									{
										OFFSET 0.715260 -0.000000 -0.000000
										CHANNELS 3 Zrotation Yrotation Xrotation
										End Site
										{
											OFFSET 0.000000 0.000000 0.000000
										}
									}
								}
								JOINT LThumb
								{
									OFFSET 0.000000 0.000000 0.000000
									CHANNELS 3 Zrotation Yrotation Xrotation
									End Site
									{
										OFFSET 0.000000 0.000000 0.000000
									}
								}
							}
						}
					}
				}
				JOINT RightShoulder
				{
					OFFSET 0.000000 0.000000 0.000000
					CHANNELS 3 Zrotation Yrotation Xrotation
					JOINT RightArm
					{
						OFFSET -3.136600 1.374050 -0.404650
						CHANNELS 3 Zrotation Yrotation Xrotation
						JOINT RightForeArm
						{
							OFFSET -5.241900 -0.000000 -0.000000
							CHANNELS 3 Zrotation Yrotation Xrotation
							JOINT RightHand
							{
								OFFSET -3.444170 -0.000000 -0.000000
								CHANNELS 3 Zrotation Yrotation Xrotation
								JOINT RightFingerBase
								{
									OFFSET 0.000000 0.000000 0.000000
									CHANNELS 3 Zrotation Yrotation Xrotation
									JOINT RightHandIndex1
									{
										OFFSET -0.622530 -0.000000 -0.000000
										CHANNELS 3 Zrotation Yrotation Xrotation
										End Site
										{
											OFFSET 0.000000 0.000000 0.000000
										}
									}
								}
								JOINT RThumb
								{
									OFFSET 0.000000 0.000000 0.000000
									CHANNELS 3 Zrotation Yrotation Xrotation
									End Site
									{
										OFFSET 0.000000 0.000000 0.000000
									}
								}
							}
						}
					}
				}
			}
		}
	}
}
MOTION
Frames: 5
Frame Time: 0.016667
-1.810816 17.673404 24.079896 0.715000 -6.060767 10.326095 -1.141054 15.095370 -1.693083 -23.120680 -3.997373 -8.448107 -8.946245 -6.856348 -17.761883 1.671223 9.549336 23.608225 0.000000 0.000000 0.000000 7.902829 -18.144087 -2.236384 21.212450 19.586506 -17.259624 -25.629722 -13.904662 69.738473 28.411318 -44.610772 5.761558 0.000000 0.000000 0.000000 -5.893190 1.185614 11.091143 6.999712 1.387615 -6.852329 0.017997 1.662592 -6.633071 -0.338397 -0.033626 -0.914613 1.861409 -0.079586 3.187310 0.000000 0.000000 0.000000 -0.948351 14.474445 11.715871 -70.623643 -4.908124 7.538292 -170.436137 -89.213384 -179.833985 4.897634 -11.358439 0.078682 4.949061 -11.340051 0.000000 0.000000 0.000000 0.000000 0.000000 0.000000 0.000000 1.899506 -14.982042 8.144833 55.992601 4.754861 18.588527 25.886954 64.560068 0.113871 -0.299177 4.923884 0.056733 -0.302253 4.925009 0.000000 0.000000 0.000000 0.000000 0.000000 0.000000 0.000000 
-1.770864 17.739249 24.323174 0.857967 -5.882800 10.379755 -1.753058 15.074905 -1.486600 -22.924035 -4.251499 -8.731043 -8.469579 -6.278737 -15.934675 1.279459 8.284729 20.767064 0.000000 0.000000 0.000000 7.547698 -17.985876 -1.450798 20.114825 18.872874 -17.282419 -24.628108 -14.591116 68.424616 27.922457 -44.761646 6.880691 0.000000 0.000000 0.000000 -4.892744 1.238950 10.281608 6.142026 1.219410 -5.559809 -0.616024 1.635290 -6.995212 0.017933 -0.099402 -0.998813 1.727547 -0.091586 3.294330 0.000000 0.000000 0.000000 -1.158964 14.426629 11.420765 -70.061537 -4.868517 8.872752 -171.472686 -89.875904 -179.818022 4.920767 -11.735850 0.086262 4.975745 -11.716649 0.000000 0.000000 0.000000 0.000000 0.000000 0.000000 0.000000 1.092961 -14.795298 8.234320 57.668750 4.554969 18.822469 25.322468 65.976736 0.156665 -0.182321 6.479649 0.077910 -0.187743 6.481380 0.000000 0.000000 0.000000 0.000000 0.000000 0.000000 0.000000 
-1.749255 17.791478 24.541966 1.005709 -5.491265 10.375434 -2.169467 14.875732 -1.462480 -22.819467 -4.397965 -8.750534 -8.013286 -5.779930 -14.243904 0.985145 7.108131 18.273738 0.000000 0.000000 0.000000 7.331665 -17.568537 -0.904991 19.004601 17.950671 -17.074022 -23.477412 -15.462939 67.196124 27.605651 -44.999206 7.604325 0.000000 0.000000 0.000000 -4.160067 1.252904 9.792832 5.387130 1.054856 -4.625398 -1.079937 1.570355 -7.152108 0.403657 -0.154002 -1.157415 1.661522 -0.098345 3.376682 0.000000 0.000000 0.000000 -1.117053 14.214752 11.155277 -69.665360 -4.826869 10.320116 7.167755 -89.322273 0.205974 4.865119 -12.120646 0.097908 4.922696 -12.101319 0.000000 0.000000 0.000000 0.000000 0.000000 0.000000 0.000000 0.161429 -14.516649 8.295131 59.500902 4.306924 19.217440 24.372967 67.915839 0.213054 -0.112814 8.107039 0.105778 -0.120710 8.109488 0.000000 0.000000 0.000000 0.000000 0.000000 0.000000 0.000000 
-1.724076 17.845154 24.757516 1.210647 -5.411468 10.230239 -2.474305 14.492650 -1.643137 -22.907423 -4.142541 -8.208323 -7.369213 -5.351204 -13.062522 0.762908 6.281402 16.426215 0.000000 0.000000 0.000000 7.124135 -17.166822 -0.260529 17.857600 17.077726 -16.814299 -22.490800 -16.130633 65.909748 27.140921 -45.109686 8.564234 0.000000 0.000000 0.000000 -3.510087 1.332665 9.314192 4.636465 0.961837 -3.559785 -1.519718 1.569592 -7.370421 0.712641 -0.194695 -1.275891 1.612060 -0.101926 3.411508 0.000000 0.000000 0.000000 -1.167242 14.069961 10.928123 -69.242381 -4.820045 11.547834 5.971480 -88.612519 0.226886 4.805678 -12.446402 0.108049 4.865447 -12.427079 0.000000 0.000000 0.000000 0.000000 0.000000 0.000000 0.000000 -0.557627 -14.279003 8.297412 61.004112 4.100145 19.423197 23.610884 69.360832 0.269356 -0.077256 9.502809 0.133559 -0.087317 9.505962 0.000000 0.000000 0.000000 0.000000 0.000000 0.000000 0.000000 
-1.686462 17.905893 24.978427 1.328467 -5.400631 10.257466 -3.323528 14.284814 -1.298084 -22.338197 -4.292100 -8.474562 -6.813281 -4.979650 -11.955732 0.569836 5.518285 14.665162 0.000000 0.000000 0.000000 7.066714 -16.901311 0.456025 16.620549 16.331625 -16.804107 -21.530918 -16.655230 64.547563 26.584159 -45.172008 9.714858 0.000000 0.000000 0.000000 -2.569502 1.399010 8.376544 3.768717 0.858514 -2.102452 -1.967787 1.560300 -7.799115 0.950891 -0.228090 -1.337040 1.536221 -0.103244 3.375488 0.000000 0.000000 0.000000 -1.442521 13.997322 10.721782 -68.705763 -4.797139 12.580087 5.021556 -88.006859 0.245652 4.761407 -12.705929 0.117164 4.822919 -12.686620 0.000000 0.000000 0.000000 0.000000 0.000000 0.000000 0.000000 -0.986088 -14.170531 8.264158 62.087564 3.917560 19.500744 23.039851 70.313576 0.320495 -0.064487 10.642106 0.158755 -0.076324 10.645887 0.000000 0.000000 0.000000 0.000000 0.000000 0.000000 0.000000 
